<mxfile host="app.diagrams.net" modified="2024-06-12T10:10:26.214Z" agent="Mozilla/5.0 (Windows NT 10.0; Win64; x64) AppleWebKit/537.36 (KHTML, like Gecko) Chrome/126.0.0.0 Safari/537.36" etag="2GzDkTN6pDKSK5NQK6Xf" version="24.5.2" type="device">
  <diagram name="Page-1" id="jGuc_VarHh-mas6YY8T4">
    <mxGraphModel dx="1738" dy="870" grid="1" gridSize="10" guides="1" tooltips="1" connect="1" arrows="1" fold="1" page="1" pageScale="1" pageWidth="850" pageHeight="1100" math="0" shadow="0">
      <root>
        <mxCell id="0" />
        <mxCell id="1" parent="0" />
        <mxCell id="nwMmHUderqbM52qenYKa-73" value="" style="fillColor=none;dashed=1;verticalAlign=top;fontStyle=0;whiteSpace=wrap;html=1;strokeWidth=1.5;movable=0;resizable=0;rotatable=0;deletable=0;editable=0;locked=1;connectable=0;shadow=1;" vertex="1" parent="1">
          <mxGeometry x="-15" y="180" width="850" height="990" as="geometry" />
        </mxCell>
        <mxCell id="nwMmHUderqbM52qenYKa-1" value="users" style="sketch=0;outlineConnect=0;fontColor=#ffffff;strokeColor=#6D1F00;fillColor=#a0522d;dashed=0;verticalLabelPosition=bottom;verticalAlign=top;align=center;html=1;fontSize=12;fontStyle=0;aspect=fixed;shape=mxgraph.aws4.illustration_users;pointerEvents=1" vertex="1" parent="1">
          <mxGeometry x="365" y="20" width="70" height="70" as="geometry" />
        </mxCell>
        <mxCell id="nwMmHUderqbM52qenYKa-2" value="" style="sketch=0;outlineConnect=0;fontColor=#232F3E;gradientColor=none;fillColor=#8C4FFF;strokeColor=none;dashed=0;verticalLabelPosition=bottom;verticalAlign=top;align=center;html=1;fontSize=12;fontStyle=0;aspect=fixed;pointerEvents=1;shape=mxgraph.aws4.gateway_load_balancer;" vertex="1" parent="1">
          <mxGeometry x="365" y="180" width="70" height="70" as="geometry" />
        </mxCell>
        <mxCell id="nwMmHUderqbM52qenYKa-3" value="" style="fillColor=none;dashed=1;verticalAlign=top;fontStyle=0;whiteSpace=wrap;html=1;strokeWidth=2;movable=0;resizable=0;rotatable=0;deletable=0;editable=0;locked=1;connectable=0;shadow=1;" vertex="1" parent="1">
          <mxGeometry x="20" y="330" width="790" height="660" as="geometry" />
        </mxCell>
        <mxCell id="nwMmHUderqbM52qenYKa-4" value="Customer" style="rounded=1;whiteSpace=wrap;html=1;" vertex="1" parent="1">
          <mxGeometry x="80" y="460" width="120" height="60" as="geometry" />
        </mxCell>
        <mxCell id="nwMmHUderqbM52qenYKa-5" value="Product" style="rounded=1;whiteSpace=wrap;html=1;" vertex="1" parent="1">
          <mxGeometry x="340" y="400" width="120" height="60" as="geometry" />
        </mxCell>
        <mxCell id="nwMmHUderqbM52qenYKa-6" value="Order" style="rounded=1;whiteSpace=wrap;html=1;" vertex="1" parent="1">
          <mxGeometry x="620" y="450" width="120" height="60" as="geometry" />
        </mxCell>
        <mxCell id="nwMmHUderqbM52qenYKa-25" value="" style="edgeStyle=orthogonalEdgeStyle;rounded=0;orthogonalLoop=1;jettySize=auto;html=1;" edge="1" parent="1" source="nwMmHUderqbM52qenYKa-7" target="nwMmHUderqbM52qenYKa-8">
          <mxGeometry relative="1" as="geometry" />
        </mxCell>
        <mxCell id="nwMmHUderqbM52qenYKa-7" value="Payment" style="rounded=1;whiteSpace=wrap;html=1;" vertex="1" parent="1">
          <mxGeometry x="350" y="620" width="120" height="60" as="geometry" />
        </mxCell>
        <mxCell id="nwMmHUderqbM52qenYKa-8" value="Message Broker(Kafka)" style="rounded=1;whiteSpace=wrap;html=1;" vertex="1" parent="1">
          <mxGeometry x="350" y="760" width="120" height="60" as="geometry" />
        </mxCell>
        <mxCell id="nwMmHUderqbM52qenYKa-26" style="edgeStyle=orthogonalEdgeStyle;rounded=0;orthogonalLoop=1;jettySize=auto;html=1;exitX=0.5;exitY=0;exitDx=0;exitDy=0;" edge="1" parent="1" source="nwMmHUderqbM52qenYKa-9">
          <mxGeometry relative="1" as="geometry">
            <mxPoint x="410" y="820" as="targetPoint" />
          </mxGeometry>
        </mxCell>
        <mxCell id="nwMmHUderqbM52qenYKa-9" value="Notification" style="rounded=1;whiteSpace=wrap;html=1;" vertex="1" parent="1">
          <mxGeometry x="350" y="880" width="120" height="60" as="geometry" />
        </mxCell>
        <mxCell id="nwMmHUderqbM52qenYKa-10" value="ZIPKIN" style="shape=cylinder3;whiteSpace=wrap;html=1;boundedLbl=1;backgroundOutline=1;size=15;" vertex="1" parent="1">
          <mxGeometry x="90" y="1050" width="115" height="70" as="geometry" />
        </mxCell>
        <mxCell id="nwMmHUderqbM52qenYKa-11" value="Distribuited Tracing" style="text;html=1;align=center;verticalAlign=middle;resizable=0;points=[];autosize=1;strokeColor=none;fillColor=none;" vertex="1" parent="1">
          <mxGeometry x="85" y="1130" width="130" height="30" as="geometry" />
        </mxCell>
        <mxCell id="nwMmHUderqbM52qenYKa-13" value="" style="endArrow=classic;startArrow=classic;html=1;rounded=0;" edge="1" parent="1" source="nwMmHUderqbM52qenYKa-3">
          <mxGeometry width="50" height="50" relative="1" as="geometry">
            <mxPoint x="345" y="380" as="sourcePoint" />
            <mxPoint x="395" y="330" as="targetPoint" />
          </mxGeometry>
        </mxCell>
        <mxCell id="nwMmHUderqbM52qenYKa-14" value="" style="endArrow=classic;startArrow=classic;html=1;rounded=0;" edge="1" parent="1" source="nwMmHUderqbM52qenYKa-3">
          <mxGeometry width="50" height="50" relative="1" as="geometry">
            <mxPoint x="345" y="380" as="sourcePoint" />
            <mxPoint x="395" y="330" as="targetPoint" />
          </mxGeometry>
        </mxCell>
        <mxCell id="nwMmHUderqbM52qenYKa-16" value="" style="endArrow=none;dashed=1;html=1;rounded=0;strokeWidth=2;fillColor=#a20025;strokeColor=#6F0000;" edge="1" parent="1">
          <mxGeometry width="50" height="50" relative="1" as="geometry">
            <mxPoint x="150" y="460" as="sourcePoint" />
            <mxPoint x="395" y="330" as="targetPoint" />
            <Array as="points" />
          </mxGeometry>
        </mxCell>
        <mxCell id="nwMmHUderqbM52qenYKa-19" value="" style="endArrow=none;dashed=1;html=1;rounded=0;strokeWidth=2;fillColor=#a20025;strokeColor=#6F0000;" edge="1" parent="1">
          <mxGeometry width="50" height="50" relative="1" as="geometry">
            <mxPoint x="670" y="450" as="sourcePoint" />
            <mxPoint x="400" y="330" as="targetPoint" />
            <Array as="points" />
          </mxGeometry>
        </mxCell>
        <mxCell id="nwMmHUderqbM52qenYKa-20" value="" style="endArrow=none;dashed=1;html=1;rounded=0;strokeWidth=2;fillColor=#a20025;strokeColor=#6F0000;" edge="1" parent="1">
          <mxGeometry width="50" height="50" relative="1" as="geometry">
            <mxPoint x="400" y="400" as="sourcePoint" />
            <mxPoint x="400" y="250" as="targetPoint" />
          </mxGeometry>
        </mxCell>
        <mxCell id="nwMmHUderqbM52qenYKa-21" value="" style="endArrow=none;dashed=1;html=1;rounded=0;strokeWidth=2;fillColor=#a20025;strokeColor=#6F0000;exitX=0.007;exitY=0.643;exitDx=0;exitDy=0;exitPerimeter=0;entryX=1;entryY=0.5;entryDx=0;entryDy=0;" edge="1" parent="1" source="nwMmHUderqbM52qenYKa-6" target="nwMmHUderqbM52qenYKa-4">
          <mxGeometry width="50" height="50" relative="1" as="geometry">
            <mxPoint x="200" y="620" as="sourcePoint" />
            <mxPoint x="200" y="470" as="targetPoint" />
          </mxGeometry>
        </mxCell>
        <mxCell id="nwMmHUderqbM52qenYKa-22" value="" style="endArrow=none;dashed=1;html=1;rounded=0;strokeWidth=2;fillColor=#a20025;strokeColor=#6F0000;exitX=0;exitY=0.25;exitDx=0;exitDy=0;" edge="1" parent="1" source="nwMmHUderqbM52qenYKa-6">
          <mxGeometry width="50" height="50" relative="1" as="geometry">
            <mxPoint x="620" y="450" as="sourcePoint" />
            <mxPoint x="460" y="431" as="targetPoint" />
          </mxGeometry>
        </mxCell>
        <mxCell id="nwMmHUderqbM52qenYKa-23" value="" style="endArrow=none;dashed=1;html=1;rounded=0;strokeWidth=2;fillColor=#a20025;strokeColor=#6F0000;entryX=1;entryY=0;entryDx=0;entryDy=0;exitX=0;exitY=1;exitDx=0;exitDy=0;" edge="1" parent="1" source="nwMmHUderqbM52qenYKa-6" target="nwMmHUderqbM52qenYKa-7">
          <mxGeometry width="50" height="50" relative="1" as="geometry">
            <mxPoint x="620" y="490" as="sourcePoint" />
            <mxPoint x="210" y="480" as="targetPoint" />
          </mxGeometry>
        </mxCell>
        <mxCell id="nwMmHUderqbM52qenYKa-24" value="" style="endArrow=none;dashed=1;html=1;rounded=0;strokeWidth=2;fillColor=#a20025;strokeColor=#6F0000;" edge="1" parent="1" target="nwMmHUderqbM52qenYKa-8">
          <mxGeometry width="50" height="50" relative="1" as="geometry">
            <mxPoint x="410" y="680" as="sourcePoint" />
            <mxPoint x="260" y="810" as="targetPoint" />
          </mxGeometry>
        </mxCell>
        <mxCell id="nwMmHUderqbM52qenYKa-27" value="" style="endArrow=none;dashed=1;html=1;rounded=0;strokeWidth=2;fillColor=#a20025;strokeColor=#6F0000;" edge="1" parent="1">
          <mxGeometry width="50" height="50" relative="1" as="geometry">
            <mxPoint x="409.5" y="830" as="sourcePoint" />
            <mxPoint x="410" y="880" as="targetPoint" />
          </mxGeometry>
        </mxCell>
        <mxCell id="nwMmHUderqbM52qenYKa-29" value="" style="endArrow=classic;html=1;rounded=0;" edge="1" parent="1">
          <mxGeometry width="50" height="50" relative="1" as="geometry">
            <mxPoint x="620" y="510" as="sourcePoint" />
            <mxPoint x="470" y="620" as="targetPoint" />
          </mxGeometry>
        </mxCell>
        <mxCell id="nwMmHUderqbM52qenYKa-31" value="" style="endArrow=classic;html=1;rounded=0;exitX=0;exitY=0.25;exitDx=0;exitDy=0;" edge="1" parent="1" source="nwMmHUderqbM52qenYKa-6">
          <mxGeometry width="50" height="50" relative="1" as="geometry">
            <mxPoint x="430" y="580" as="sourcePoint" />
            <mxPoint x="460" y="430" as="targetPoint" />
          </mxGeometry>
        </mxCell>
        <mxCell id="nwMmHUderqbM52qenYKa-32" value="" style="endArrow=classic;html=1;rounded=0;" edge="1" parent="1">
          <mxGeometry width="50" height="50" relative="1" as="geometry">
            <mxPoint x="620" y="490" as="sourcePoint" />
            <mxPoint x="200" y="490" as="targetPoint" />
          </mxGeometry>
        </mxCell>
        <mxCell id="nwMmHUderqbM52qenYKa-33" value="" style="endArrow=classic;html=1;rounded=0;entryX=0.5;entryY=0;entryDx=0;entryDy=0;entryPerimeter=0;" edge="1" parent="1">
          <mxGeometry width="50" height="50" relative="1" as="geometry">
            <mxPoint x="150" y="990" as="sourcePoint" />
            <mxPoint x="150" y="1050" as="targetPoint" />
          </mxGeometry>
        </mxCell>
        <mxCell id="nwMmHUderqbM52qenYKa-34" value="" style="outlineConnect=0;html=1;align=center;labelPosition=center;verticalLabelPosition=bottom;verticalAlign=top;shape=mxgraph.webicons.mongodb;gradientColor=#DFDEDE;strokeWidth=2;shadow=1;" vertex="1" parent="1">
          <mxGeometry x="119.4" y="560" width="41.2" height="40" as="geometry" />
        </mxCell>
        <mxCell id="nwMmHUderqbM52qenYKa-35" value="" style="endArrow=none;dashed=1;html=1;rounded=0;strokeWidth=2;fillColor=#a20025;strokeColor=#6F0000;" edge="1" parent="1" target="nwMmHUderqbM52qenYKa-34">
          <mxGeometry width="50" height="50" relative="1" as="geometry">
            <mxPoint x="140" y="520" as="sourcePoint" />
            <mxPoint x="325" y="595" as="targetPoint" />
            <Array as="points" />
          </mxGeometry>
        </mxCell>
        <mxCell id="nwMmHUderqbM52qenYKa-37" style="edgeStyle=orthogonalEdgeStyle;rounded=0;orthogonalLoop=1;jettySize=auto;html=1;" edge="1" parent="1" target="nwMmHUderqbM52qenYKa-2">
          <mxGeometry relative="1" as="geometry">
            <mxPoint x="400" y="140" as="sourcePoint" />
          </mxGeometry>
        </mxCell>
        <mxCell id="nwMmHUderqbM52qenYKa-38" value="API Gateway" style="text;html=1;align=center;verticalAlign=middle;resizable=0;points=[];autosize=1;strokeColor=none;fillColor=none;" vertex="1" parent="1">
          <mxGeometry x="435" y="198" width="90" height="30" as="geometry" />
        </mxCell>
        <mxCell id="nwMmHUderqbM52qenYKa-39" value="/products" style="text;html=1;align=center;verticalAlign=middle;resizable=0;points=[];autosize=1;strokeColor=none;fillColor=none;" vertex="1" parent="1">
          <mxGeometry x="320" y="370" width="70" height="30" as="geometry" />
        </mxCell>
        <mxCell id="nwMmHUderqbM52qenYKa-40" value="/orders" style="text;html=1;align=center;verticalAlign=middle;resizable=0;points=[];autosize=1;strokeColor=none;fillColor=none;" vertex="1" parent="1">
          <mxGeometry x="650" y="400" width="60" height="30" as="geometry" />
        </mxCell>
        <mxCell id="nwMmHUderqbM52qenYKa-41" value="/customers" style="text;html=1;align=center;verticalAlign=middle;resizable=0;points=[];autosize=1;strokeColor=none;fillColor=none;" vertex="1" parent="1">
          <mxGeometry x="85" y="415" width="80" height="30" as="geometry" />
        </mxCell>
        <mxCell id="nwMmHUderqbM52qenYKa-42" value="" style="dashed=0;outlineConnect=0;html=1;align=center;labelPosition=center;verticalLabelPosition=bottom;verticalAlign=top;shape=mxgraph.webicons.java;gradientColor=#DFDEDE" vertex="1" parent="1">
          <mxGeometry x="-15" y="180" width="60" height="60" as="geometry" />
        </mxCell>
        <mxCell id="nwMmHUderqbM52qenYKa-43" value="" style="dashed=0;outlineConnect=0;html=1;align=center;labelPosition=center;verticalLabelPosition=bottom;verticalAlign=top;shape=mxgraph.webicons.json;gradientColor=#DFDEDE" vertex="1" parent="1">
          <mxGeometry x="375" y="90" width="50" height="50" as="geometry" />
        </mxCell>
        <mxCell id="nwMmHUderqbM52qenYKa-45" value="Postman" style="text;html=1;align=center;verticalAlign=middle;resizable=0;points=[];autosize=1;strokeColor=none;fillColor=none;" vertex="1" parent="1">
          <mxGeometry x="435" y="100" width="70" height="30" as="geometry" />
        </mxCell>
        <mxCell id="nwMmHUderqbM52qenYKa-46" value="Spring cloud microservice" style="text;html=1;align=center;verticalAlign=middle;resizable=0;points=[];autosize=1;strokeColor=none;fillColor=none;fontStyle=1" vertex="1" parent="1">
          <mxGeometry x="55" y="198" width="160" height="30" as="geometry" />
        </mxCell>
        <mxCell id="nwMmHUderqbM52qenYKa-47" value="" style="sketch=0;points=[[0,0,0],[0.25,0,0],[0.5,0,0],[0.75,0,0],[1,0,0],[0,1,0],[0.25,1,0],[0.5,1,0],[0.75,1,0],[1,1,0],[0,0.25,0],[0,0.5,0],[0,0.75,0],[1,0.25,0],[1,0.5,0],[1,0.75,0]];outlineConnect=0;fontColor=#232F3E;fillColor=#C925D1;strokeColor=#ffffff;dashed=0;verticalLabelPosition=bottom;verticalAlign=top;align=center;html=1;fontSize=12;fontStyle=0;aspect=fixed;shape=mxgraph.aws4.resourceIcon;resIcon=mxgraph.aws4.database;" vertex="1" parent="1">
          <mxGeometry x="660" y="550" width="40" height="40" as="geometry" />
        </mxCell>
        <mxCell id="nwMmHUderqbM52qenYKa-48" value="" style="endArrow=none;dashed=1;html=1;rounded=0;strokeWidth=2;fillColor=#a20025;strokeColor=#6F0000;" edge="1" parent="1">
          <mxGeometry width="50" height="50" relative="1" as="geometry">
            <mxPoint x="680" y="510" as="sourcePoint" />
            <mxPoint x="680" y="550" as="targetPoint" />
            <Array as="points" />
          </mxGeometry>
        </mxCell>
        <mxCell id="nwMmHUderqbM52qenYKa-49" value="Postgress" style="text;html=1;align=center;verticalAlign=middle;resizable=0;points=[];autosize=1;strokeColor=none;fillColor=none;" vertex="1" parent="1">
          <mxGeometry x="640" y="600" width="80" height="30" as="geometry" />
        </mxCell>
        <mxCell id="nwMmHUderqbM52qenYKa-50" value="Mongo DB" style="text;html=1;align=center;verticalAlign=middle;resizable=0;points=[];autosize=1;strokeColor=none;fillColor=none;" vertex="1" parent="1">
          <mxGeometry x="100" y="610" width="80" height="30" as="geometry" />
        </mxCell>
        <mxCell id="nwMmHUderqbM52qenYKa-51" value="" style="sketch=0;points=[[0,0,0],[0.25,0,0],[0.5,0,0],[0.75,0,0],[1,0,0],[0,1,0],[0.25,1,0],[0.5,1,0],[0.75,1,0],[1,1,0],[0,0.25,0],[0,0.5,0],[0,0.75,0],[1,0.25,0],[1,0.5,0],[1,0.75,0]];outlineConnect=0;fontColor=#232F3E;fillColor=#C925D1;strokeColor=#ffffff;dashed=0;verticalLabelPosition=bottom;verticalAlign=top;align=center;html=1;fontSize=12;fontStyle=0;aspect=fixed;shape=mxgraph.aws4.resourceIcon;resIcon=mxgraph.aws4.database;" vertex="1" parent="1">
          <mxGeometry x="260" y="630" width="40" height="40" as="geometry" />
        </mxCell>
        <mxCell id="nwMmHUderqbM52qenYKa-52" value="Postgress" style="text;html=1;align=center;verticalAlign=middle;resizable=0;points=[];autosize=1;strokeColor=none;fillColor=none;" vertex="1" parent="1">
          <mxGeometry x="240" y="670" width="80" height="30" as="geometry" />
        </mxCell>
        <mxCell id="nwMmHUderqbM52qenYKa-54" value="" style="endArrow=none;dashed=1;html=1;rounded=0;strokeWidth=2;fillColor=#a20025;strokeColor=#6F0000;entryX=1;entryY=0.5;entryDx=0;entryDy=0;entryPerimeter=0;" edge="1" parent="1" target="nwMmHUderqbM52qenYKa-51">
          <mxGeometry width="50" height="50" relative="1" as="geometry">
            <mxPoint x="350" y="650" as="sourcePoint" />
            <mxPoint x="470" y="650" as="targetPoint" />
            <Array as="points" />
          </mxGeometry>
        </mxCell>
        <mxCell id="nwMmHUderqbM52qenYKa-56" value="" style="outlineConnect=0;html=1;align=center;labelPosition=center;verticalLabelPosition=bottom;verticalAlign=top;shape=mxgraph.webicons.mongodb;gradientColor=#DFDEDE;strokeWidth=2;shadow=1;" vertex="1" parent="1">
          <mxGeometry x="529.4" y="890" width="41.2" height="40" as="geometry" />
        </mxCell>
        <mxCell id="nwMmHUderqbM52qenYKa-57" value="" style="endArrow=none;dashed=1;html=1;rounded=0;strokeWidth=2;fillColor=#a20025;strokeColor=#6F0000;" edge="1" parent="1" target="nwMmHUderqbM52qenYKa-56">
          <mxGeometry width="50" height="50" relative="1" as="geometry">
            <mxPoint x="470" y="910" as="sourcePoint" />
            <mxPoint x="735" y="925" as="targetPoint" />
            <Array as="points" />
          </mxGeometry>
        </mxCell>
        <mxCell id="nwMmHUderqbM52qenYKa-58" value="Mongo DB" style="text;html=1;align=center;verticalAlign=middle;resizable=0;points=[];autosize=1;strokeColor=none;fillColor=none;" vertex="1" parent="1">
          <mxGeometry x="510" y="940" width="80" height="30" as="geometry" />
        </mxCell>
        <mxCell id="nwMmHUderqbM52qenYKa-59" value="Email" style="shape=parallelogram;perimeter=parallelogramPerimeter;whiteSpace=wrap;html=1;fixedSize=1;" vertex="1" parent="1">
          <mxGeometry x="200" y="890" width="80" height="40" as="geometry" />
        </mxCell>
        <mxCell id="nwMmHUderqbM52qenYKa-61" value="" style="endArrow=none;dashed=1;html=1;rounded=0;strokeWidth=2;fillColor=#a20025;strokeColor=#6F0000;entryX=0;entryY=0.492;entryDx=0;entryDy=0;entryPerimeter=0;exitX=1;exitY=0.5;exitDx=0;exitDy=0;" edge="1" parent="1" source="nwMmHUderqbM52qenYKa-59" target="nwMmHUderqbM52qenYKa-9">
          <mxGeometry width="50" height="50" relative="1" as="geometry">
            <mxPoint x="280" y="909.5" as="sourcePoint" />
            <mxPoint x="339" y="909.5" as="targetPoint" />
            <Array as="points" />
          </mxGeometry>
        </mxCell>
        <mxCell id="nwMmHUderqbM52qenYKa-62" value="E-Commerce Chess" style="text;html=1;align=center;verticalAlign=middle;resizable=0;points=[];autosize=1;strokeColor=none;fillColor=none;fontSize=15;textShadow=1;fontStyle=1" vertex="1" parent="1">
          <mxGeometry x="-20.00000000000002" y="10" width="160" height="30" as="geometry" />
        </mxCell>
        <mxCell id="nwMmHUderqbM52qenYKa-64" value="" style="endArrow=none;dashed=1;html=1;rounded=0;strokeWidth=2;fillColor=#a20025;strokeColor=#6F0000;" edge="1" parent="1">
          <mxGeometry width="50" height="50" relative="1" as="geometry">
            <mxPoint x="640" y="510" as="sourcePoint" />
            <mxPoint x="470" y="760" as="targetPoint" />
            <Array as="points" />
          </mxGeometry>
        </mxCell>
        <mxCell id="nwMmHUderqbM52qenYKa-65" value="send order confirmation" style="text;html=1;align=center;verticalAlign=middle;resizable=0;points=[];autosize=1;strokeColor=none;fillColor=none;" vertex="1" parent="1">
          <mxGeometry x="525" y="660" width="150" height="30" as="geometry" />
        </mxCell>
        <mxCell id="nwMmHUderqbM52qenYKa-66" value="send payment confirmation" style="text;html=1;align=center;verticalAlign=middle;resizable=0;points=[];autosize=1;strokeColor=none;fillColor=none;" vertex="1" parent="1">
          <mxGeometry x="240" y="710" width="170" height="30" as="geometry" />
        </mxCell>
        <mxCell id="nwMmHUderqbM52qenYKa-67" value="Config Server" style="rounded=1;whiteSpace=wrap;html=1;" vertex="1" parent="1">
          <mxGeometry x="555" y="1055" width="120" height="60" as="geometry" />
        </mxCell>
        <mxCell id="nwMmHUderqbM52qenYKa-68" value="Eureka Server" style="rounded=1;whiteSpace=wrap;html=1;" vertex="1" parent="1">
          <mxGeometry x="340" y="1055" width="120" height="60" as="geometry" />
        </mxCell>
        <mxCell id="nwMmHUderqbM52qenYKa-69" value="" style="endArrow=none;dashed=1;html=1;rounded=0;strokeWidth=2;fillColor=#a20025;strokeColor=#6F0000;exitX=0.5;exitY=0;exitDx=0;exitDy=0;" edge="1" parent="1" source="nwMmHUderqbM52qenYKa-68">
          <mxGeometry width="50" height="50" relative="1" as="geometry">
            <mxPoint x="150" y="530" as="sourcePoint" />
            <mxPoint x="400" y="990" as="targetPoint" />
            <Array as="points" />
          </mxGeometry>
        </mxCell>
        <mxCell id="nwMmHUderqbM52qenYKa-70" value="" style="endArrow=none;dashed=1;html=1;rounded=0;strokeWidth=2;fillColor=#a20025;strokeColor=#6F0000;exitX=0.5;exitY=0;exitDx=0;exitDy=0;" edge="1" parent="1">
          <mxGeometry width="50" height="50" relative="1" as="geometry">
            <mxPoint x="614.5" y="1055" as="sourcePoint" />
            <mxPoint x="614.5" y="990" as="targetPoint" />
            <Array as="points" />
          </mxGeometry>
        </mxCell>
        <mxCell id="nwMmHUderqbM52qenYKa-71" value="" style="endArrow=none;dashed=1;html=1;rounded=0;strokeWidth=2;fillColor=#a20025;strokeColor=#6F0000;" edge="1" parent="1">
          <mxGeometry width="50" height="50" relative="1" as="geometry">
            <mxPoint x="550" y="1090" as="sourcePoint" />
            <mxPoint x="460" y="1090" as="targetPoint" />
            <Array as="points" />
          </mxGeometry>
        </mxCell>
      </root>
    </mxGraphModel>
  </diagram>
</mxfile>
